<svg width="78" height="78" viewBox="0 0 78 78" fill="none" xmlns="http://www.w3.org/2000/svg">
<rect width="77.2" height="77.2" rx="38.6" fill="#FDE1E1"/>
<path d="M36.4121 21.8876C37.6371 20.8551 39.6146 20.8551 40.8046 21.8876L43.5696 24.2501C44.0946 24.6876 45.0921 25.0551 45.7921 25.0551H48.7671C50.6221 25.0551 52.1446 26.5776 52.1446 28.4326V31.4076C52.1446 32.1076 52.5122 33.0876 52.9497 33.6126L55.3121 36.3776C56.3446 37.6026 56.3446 39.5801 55.3121 40.7701L52.9497 43.5351C52.5122 44.0601 52.1446 45.0401 52.1446 45.7401V48.7151C52.1446 50.5701 50.6221 52.0926 48.7671 52.0926H45.7921C45.0921 52.0926 44.1121 52.4601 43.5871 52.8976L40.8221 55.2601C39.5971 56.2926 37.6196 56.2926 36.4296 55.2601L33.6646 52.8976C33.1396 52.4601 32.1421 52.0926 31.4596 52.0926H28.3971C26.5421 52.0926 25.0196 50.5701 25.0196 48.7151V45.7226C25.0196 45.0401 24.6696 44.0426 24.2321 43.5351L21.8696 40.7526C20.8546 39.5451 20.8546 37.5851 21.8696 36.3776L24.2321 33.5951C24.6696 33.0701 25.0196 32.0901 25.0196 31.4076V28.4501C25.0196 26.5951 26.5421 25.0726 28.3971 25.0726H31.4246C32.1246 25.0726 33.1046 24.7051 33.6296 24.2676L36.4121 21.8876Z" stroke="#981B1B" stroke-width="2.625" stroke-linecap="round" stroke-linejoin="round"/>
<path d="M38.5996 31.8273V40.2798" stroke="#981B1B" stroke-width="2.625" stroke-linecap="round" stroke-linejoin="round"/>
<path d="M38.5898 45.6H38.6056" stroke="#981B1B" stroke-width="2.625" stroke-linecap="round" stroke-linejoin="round"/>
</svg>
