<svg width="85" height="66" viewBox="0 0 85 66" fill="none" xmlns="http://www.w3.org/2000/svg">
<path fill-rule="evenodd" clip-rule="evenodd" d="M26.4844 6.68698V0H46.1599C51.8559 0.551212 60.6983 5.28563 52.811 16.9038C44.8672 14.1885 29.5717 8.81942 26.4844 6.68698ZM26.4844 11.8246V13.9637C27.3745 14.711 40.7274 16.8259 47.4095 17.8064C41.2359 16.1429 28.8441 12.8157 28.6666 12.8157C27.7366 12.5432 27.0234 12.2054 26.4844 11.8246ZM26.4844 14.5725V38.7014H46.1599C58.782 38.0516 59.5244 25.6154 55.6264 23.4807C54.7159 22.9959 53.9919 22.5447 53.4221 22.123L44.0824 27.7877C42.2191 28.7638 38.6481 26.9375 37.0953 25.9024C39.653 26.4315 48.413 23.1325 52.548 21.3867C52.5447 21.3834 52.5414 21.3803 52.5383 21.377L41.088 24.3497C35.4929 25.9233 31.8791 22.386 30.7134 20.3367C31.6465 21.3631 44.3359 20.7137 50.7366 20.2463L33.2137 18.8046C28.2952 18.8046 26.7371 16.2856 26.4844 14.5725ZM30.6629 20.2463C30.6791 20.2761 30.696 20.3063 30.7134 20.3367C30.6871 20.3079 30.6702 20.2779 30.6629 20.2463Z" fill="#F39C12"/>
<path d="M1.30054 61.3465V48.34H7.95241C9.66183 48.34 10.9377 48.6559 11.78 49.2877C12.6223 49.907 13.0435 50.7246 13.0435 51.7403C13.0435 52.4092 12.8639 52.9976 12.5047 53.5055C12.1578 54.0009 11.6623 54.3973 11.0182 54.6946C10.3865 54.9795 9.63086 55.122 8.75138 55.122L9.12299 54.2301C10.0396 54.2301 10.8386 54.3726 11.5199 54.6575C12.2012 54.93 12.7276 55.3326 13.0992 55.8652C13.4832 56.3855 13.6752 57.0234 13.6752 57.779C13.6752 58.9062 13.2169 59.7857 12.3003 60.4175C11.396 61.0368 10.0706 61.3465 8.32402 61.3465H1.30054ZM4.94234 58.6895H8.02673C8.65847 58.6895 9.13538 58.5842 9.45744 58.3736C9.79189 58.1506 9.95912 57.8162 9.95912 57.3702C9.95912 56.9243 9.79189 56.596 9.45744 56.3855C9.13538 56.1625 8.65847 56.051 8.02673 56.051H4.68221V53.5055H7.46931C8.08867 53.5055 8.55318 53.4002 8.86286 53.1896C9.17254 52.979 9.32738 52.6631 9.32738 52.242C9.32738 51.8208 9.17254 51.5111 8.86286 51.3129C8.55318 51.1024 8.08867 50.9971 7.46931 50.9971H4.94234V58.6895ZM20.6904 61.5137C19.5012 61.5137 18.4608 61.2907 17.5689 60.8448C16.6894 60.3865 16.002 59.7671 15.5064 58.9868C15.0234 58.194 14.7818 57.2959 14.7818 56.2926C14.7818 55.2892 15.0172 54.3973 15.4879 53.6169C15.971 52.8242 16.6337 52.211 17.476 51.7775C18.3183 51.3315 19.2659 51.1086 20.3188 51.1086C21.3098 51.1086 22.214 51.3129 23.0316 51.7217C23.8491 52.1181 24.4994 52.7065 24.9825 53.4869C25.4656 54.2673 25.7072 55.2149 25.7072 56.3297C25.7072 56.4536 25.701 56.596 25.6886 56.7571C25.6762 56.9181 25.6638 57.0668 25.6514 57.203H17.6804V55.3449H23.7748L22.437 55.8652C22.4494 55.4069 22.3627 55.0105 22.1769 54.676C22.0034 54.3416 21.7557 54.0815 21.4336 53.8957C21.124 53.7098 20.7585 53.6169 20.3374 53.6169C19.9162 53.6169 19.5446 53.7098 19.2226 53.8957C18.9129 54.0815 18.6714 54.3478 18.4979 54.6946C18.3245 55.0291 18.2378 55.4255 18.2378 55.8838V56.4226C18.2378 56.9181 18.3369 57.3455 18.5351 57.7047C18.7457 58.0639 19.043 58.3426 19.4269 58.5408C19.8109 58.7266 20.2692 58.8195 20.8019 58.8195C21.2974 58.8195 21.7185 58.7514 22.0654 58.6151C22.4246 58.4665 22.7776 58.2435 23.1245 57.9462L24.9825 59.8786C24.4994 60.4113 23.9049 60.82 23.1988 61.1049C22.4927 61.3775 21.6566 61.5137 20.6904 61.5137ZM27.3349 61.3465V47.5597H30.8652V61.3465H27.3349ZM34.8876 65.1184C34.3549 65.1184 33.8161 65.0317 33.2711 64.8582C32.7384 64.6972 32.3049 64.4804 31.9704 64.2079L33.1967 61.7367C33.4073 61.9225 33.6489 62.0649 33.9214 62.164C34.2063 62.2755 34.485 62.3313 34.7575 62.3313C35.1415 62.3313 35.445 62.2446 35.668 62.0711C35.8909 61.8977 36.0829 61.6252 36.244 61.2536L36.7085 60.083L36.9872 59.73L40.406 51.2758H43.7691L39.4212 61.7553C39.0744 62.6224 38.6718 63.2975 38.2135 63.7806C37.7676 64.276 37.2659 64.6229 36.7085 64.8211C36.1634 65.0193 35.5565 65.1184 34.8876 65.1184ZM36.2625 61.7738L31.8218 51.2758H35.445L38.7152 59.4141L36.2625 61.7738ZM45.0905 61.3465V51.3873C45.0905 50.1733 45.4497 49.2071 46.1681 48.4887C46.899 47.7578 47.9395 47.3924 49.2897 47.3924C49.7232 47.3924 50.1506 47.4358 50.5718 47.5225C50.9929 47.6092 51.346 47.7393 51.6309 47.9127L50.7576 50.4025C50.6089 50.3158 50.4417 50.2477 50.2559 50.1981C50.0701 50.1362 49.8843 50.1052 49.6985 50.1052C49.3269 50.1052 49.0358 50.2167 48.8252 50.4397C48.627 50.6502 48.5279 50.9785 48.5279 51.4244V52.1491L48.6208 53.6169V61.3465H45.0905ZM43.6226 54.2858V51.6474H50.9248V54.2858H43.6226ZM56.7266 61.5137C55.4383 61.5137 54.435 61.1978 53.7165 60.5661C52.9981 59.922 52.6389 58.9558 52.6389 57.6675V49.0275H56.1692V57.6304C56.1692 57.9896 56.2683 58.2745 56.4665 58.4851C56.6647 58.6833 56.9186 58.7824 57.2283 58.7824C57.6494 58.7824 58.0087 58.6771 58.306 58.4665L59.1792 60.9377C58.882 61.1359 58.5165 61.2784 58.083 61.3651C57.6494 61.4642 57.1973 61.5137 56.7266 61.5137ZM51.171 54.2858V51.6474H58.4732V54.2858H51.171ZM65.5272 61.5137C64.3381 61.5137 63.2976 61.2907 62.4057 60.8448C61.5262 60.3865 60.8387 59.7671 60.3431 58.9868C59.8601 58.194 59.6186 57.2959 59.6186 56.2926C59.6186 55.2892 59.854 54.3973 60.3247 53.6169C60.8078 52.8242 61.4705 52.211 62.3128 51.7775C63.1551 51.3315 64.1027 51.1086 65.1556 51.1086C66.1466 51.1086 67.0509 51.3129 67.8684 51.7217C68.686 52.1181 69.3363 52.7065 69.8194 53.4869C70.3025 54.2673 70.544 55.2149 70.544 56.3297C70.544 56.4536 70.5378 56.596 70.5254 56.7571C70.513 56.9181 70.5007 57.0668 70.4883 57.203H62.5172V55.3449H68.6116L67.2738 55.8652C67.2862 55.4069 67.1995 55.0105 67.0137 54.676C66.8403 54.3416 66.5925 54.0815 66.2705 53.8957C65.9608 53.7098 65.5954 53.6169 65.1742 53.6169C64.7531 53.6169 64.3814 53.7098 64.0594 53.8957C63.7497 54.0815 63.5081 54.3478 63.3347 54.6946C63.1613 55.0291 63.0746 55.4255 63.0746 55.8838V56.4226C63.0746 56.9181 63.1737 57.3455 63.3719 57.7047C63.5825 58.0639 63.8798 58.3426 64.2638 58.5408C64.6478 58.7266 65.1061 58.8195 65.6387 58.8195C66.1342 58.8195 66.5554 58.7514 66.9022 58.6151C67.2614 58.4665 67.6145 58.2435 67.9613 57.9462L69.8194 59.8786C69.3363 60.4113 68.7417 60.82 68.0356 61.1049C67.3296 61.3775 66.4934 61.5137 65.5272 61.5137ZM76.5566 61.5137C75.64 61.5137 74.8038 61.3031 74.0482 60.882C73.305 60.4484 72.7104 59.8477 72.2645 59.0797C71.8185 58.2993 71.5956 57.3702 71.5956 56.2926C71.5956 55.2273 71.8185 54.3106 72.2645 53.5426C72.7104 52.7622 73.305 52.1615 74.0482 51.7403C74.8038 51.3191 75.64 51.1086 76.5566 51.1086C77.4237 51.1086 78.1545 51.2944 78.7491 51.666C79.3561 52.0376 79.8144 52.6074 80.1241 53.3754C80.4338 54.1434 80.5886 55.1158 80.5886 56.2926C80.5886 57.4941 80.44 58.4789 80.1427 59.2469C79.8454 60.0149 79.3994 60.5847 78.8049 60.9563C78.2103 61.3279 77.4609 61.5137 76.5566 61.5137ZM77.2998 58.708C77.6962 58.708 78.0492 58.6151 78.3589 58.4293C78.681 58.2435 78.9349 57.971 79.1207 57.6118C79.3065 57.2402 79.3994 56.8004 79.3994 56.2926C79.3994 55.7847 79.3065 55.3573 79.1207 55.0105C78.9349 54.6513 78.681 54.3788 78.3589 54.1929C78.0492 54.0071 77.6962 53.9142 77.2998 53.9142C76.8911 53.9142 76.5256 54.0071 76.2036 54.1929C75.8939 54.3788 75.6461 54.6513 75.4603 55.0105C75.2745 55.3573 75.1816 55.7847 75.1816 56.2926C75.1816 56.8004 75.2745 57.2402 75.4603 57.6118C75.6461 57.971 75.8939 58.2435 76.2036 58.4293C76.5256 58.6151 76.8911 58.708 77.2998 58.708ZM79.5109 61.3465V59.6185L79.5295 56.2926L79.3437 52.9666V47.5597H82.874V61.3465H79.5109Z" fill="#042656"/>
</svg>
