<svg width="132" height="126" viewBox="0 0 132 126" fill="none" xmlns="http://www.w3.org/2000/svg">
<g clip-path="url(#clip0_1_1659)">
<path fill-rule="evenodd" clip-rule="evenodd" d="M122.186 62.6013C119.906 65.6857 120.551 70.5991 124.328 73.8407C120.585 71.2054 115.686 71.2906 112.855 74.5486C115.321 70.9635 114.254 66.1971 110.654 63.1614C114.466 65.9199 119.29 65.7482 122.186 62.6013L122.186 62.6013Z" fill="#1CCB00"/>
</g>
<g clip-path="url(#clip1_1_1659)">
<path fill-rule="evenodd" clip-rule="evenodd" d="M10.646 55.3438C9.33343 57.1197 9.70464 59.9486 11.8797 61.815C9.72447 60.2977 6.9035 60.3468 5.27347 62.2225C6.69347 60.1584 6.07919 57.4141 4.00669 55.6663C6.20132 57.2545 8.97866 57.1556 10.646 55.3438L10.646 55.3438Z" fill="#042656"/>
</g>
<g clip-path="url(#clip2_1_1659)">
<path fill-rule="evenodd" clip-rule="evenodd" d="M50.2366 20.4477C48.5787 22.6909 49.0476 26.2643 51.795 28.6218C49.0726 26.7052 45.5093 26.7672 43.4503 29.1366C45.244 26.5293 44.468 23.0629 41.8501 20.855C44.6223 22.8612 48.1305 22.7363 50.2366 20.4477L50.2366 20.4477Z" fill="#042656"/>
</g>
<g clip-path="url(#clip3_1_1659)">
<path fill-rule="evenodd" clip-rule="evenodd" d="M9.25652 79.4634C10.9085 75.4071 9.25085 70.359 4.79481 68.1367C9.09156 69.7212 13.9884 68.0102 16.1577 63.5858C14.4215 68.2399 16.4723 72.991 20.7074 75.0517C16.3166 73.3579 11.5136 75.1365 9.2565 79.4634L9.25652 79.4634Z" fill="#1CCB00"/>
</g>
<g clip-path="url(#clip4_1_1659)">
<path fill-rule="evenodd" clip-rule="evenodd" d="M122.627 50.3645C123.578 48.029 122.624 45.1226 120.058 43.8431C122.532 44.7553 125.352 43.7702 126.601 41.2228C125.601 43.9025 126.782 46.6379 129.22 47.8244C126.692 46.8492 123.927 47.8732 122.627 50.3645L122.627 50.3645Z" fill="#042656"/>
</g>
<g clip-path="url(#clip5_1_1659)">
<path fill-rule="evenodd" clip-rule="evenodd" d="M90.0943 100.819C91.2957 97.8687 90.0902 94.1974 86.8494 92.5812C89.9744 93.7335 93.5357 92.4892 95.1133 89.2714C93.8507 92.6562 95.3422 96.1116 98.4222 97.6103C95.2289 96.3785 91.7359 97.6719 90.0943 100.819L90.0943 100.819Z" fill="#042656"/>
</g>
<path d="M90.0358 64.1838C90.0358 70.7098 87.4433 76.9685 82.8288 81.5831C78.2142 86.1976 71.9555 88.7901 65.4295 88.7901C58.9035 88.7901 52.6448 86.1976 48.0302 81.5831C43.4157 76.9685 40.8232 70.7098 40.8232 64.1838C40.8232 57.6578 43.4157 51.3991 48.0302 46.7846C52.6448 42.17 58.9035 39.5775 65.4295 39.5775C71.9555 39.5775 78.2142 42.17 82.8288 46.7846C87.4433 51.3991 90.0358 57.6578 90.0358 64.1838ZM77.8249 54.8642C77.6052 54.6452 77.3436 54.4729 77.0557 54.3573C76.7679 54.2418 76.4597 54.1855 76.1496 54.1919C75.8395 54.1982 75.5338 54.267 75.2509 54.3941C74.968 54.5213 74.7137 54.7041 74.5031 54.9319L63.8209 68.5422L57.3833 62.1015C56.946 61.694 56.3676 61.4722 55.7699 61.4827C55.1723 61.4933 54.6021 61.7354 54.1795 62.158C53.7568 62.5807 53.5147 63.1509 53.5042 63.7485C53.4936 64.3461 53.7154 64.9245 54.1229 65.3618L62.2614 73.5034C62.4807 73.7223 62.7418 73.8947 63.0291 74.0105C63.3165 74.1262 63.6242 74.1829 63.9339 74.1772C64.2436 74.1715 64.549 74.1034 64.8319 73.9771C65.1147 73.8507 65.3692 73.6687 65.5802 73.4419L77.8587 58.0938C78.2773 57.6585 78.5086 57.0765 78.5028 56.4727C78.4971 55.8689 78.2548 55.2914 77.828 54.8642H77.8249Z" fill="#1CCB00"/>
<path d="M65.4297 37.7133C72.4499 37.7133 79.1824 40.5023 84.1465 45.4662C89.1106 50.4304 91.8994 57.1636 91.8994 64.184C91.8994 71.2043 89.1106 77.9367 84.1465 82.9008C79.1824 87.8649 72.45 90.6537 65.4297 90.6537C58.4093 90.6537 51.6761 87.8649 46.7119 82.9008C41.748 77.9367 38.959 71.2042 38.959 64.184C38.959 57.1636 41.7478 50.4304 46.7119 45.4662C51.6761 40.5021 58.4093 37.7133 65.4297 37.7133ZM76.1875 56.0561C76.128 56.0573 76.0689 56.0697 76.0146 56.0941C75.9707 56.1139 75.9317 56.1425 75.8965 56.1752L65.2871 69.6928L63.9893 71.3471L62.502 69.8598L56.1035 63.4584C56.0207 63.385 55.9137 63.3441 55.8027 63.3461C55.6882 63.3481 55.5791 63.3951 55.498 63.476C55.4169 63.5571 55.3702 63.6669 55.3682 63.7816C55.3663 63.8925 55.4062 63.9996 55.4795 64.0824L63.5781 72.184C63.6202 72.226 63.6704 72.2594 63.7256 72.2816C63.7807 72.3039 63.84 72.315 63.8994 72.3139C63.9588 72.3128 64.0171 72.299 64.0713 72.2748C64.1179 72.254 64.1586 72.2231 64.1953 72.1879L76.4033 56.9291L76.4561 56.8627L76.5156 56.8012C76.5957 56.7177 76.6397 56.6063 76.6387 56.4906C76.6376 56.3833 76.5964 56.2813 76.5254 56.2016L76.5088 56.185C76.4666 56.143 76.4166 56.1095 76.3613 56.0873C76.3061 56.0652 76.247 56.0548 76.1875 56.0561Z" stroke="#1CCB00" stroke-opacity="0.25" stroke-width="3.72822"/>
<defs>
<clipPath id="clip0_1_1659">
<rect width="19.408" height="16.9942" fill="white" transform="translate(115.052 55.8637) rotate(38)"/>
</clipPath>
<clipPath id="clip1_1_1659">
<rect width="11.1743" height="9.78452" fill="white" transform="translate(6.53809 51.4646) rotate(38)"/>
</clipPath>
<clipPath id="clip2_1_1659">
<rect width="14.1149" height="12.3594" fill="white" transform="translate(45.0479 15.5459) rotate(38)"/>
</clipPath>
<clipPath id="clip3_1_1659">
<rect width="19.4079" height="19.4079" fill="white" transform="translate(17.7988 84.322) rotate(-156.5)"/>
</clipPath>
<clipPath id="clip4_1_1659">
<rect width="11.1743" height="11.1743" fill="white" transform="translate(127.545 53.1606) rotate(-156.5)"/>
</clipPath>
<clipPath id="clip5_1_1659">
<rect width="14.1148" height="14.1148" fill="white" transform="translate(96.3076 104.353) rotate(-156.5)"/>
</clipPath>
</defs>
</svg>
