<svg width="24" height="24" viewBox="0 0 24 24" fill="none" xmlns="http://www.w3.org/2000/svg">
<path d="M17.7381 8.81845C17.1511 7.80176 16.2944 6.9672 15.2627 6.40703C14.231 5.84686 13.0645 5.58291 11.8921 5.64435C10.7197 5.70579 9.5872 6.09023 8.6197 6.75518C7.6522 7.42012 6.88743 8.33966 6.40993 9.41214M19.2021 6.84141L18.6217 9.35547C18.5229 9.78367 18.0956 10.0507 17.6674 9.9518L15.1534 9.3714M6.71239 15.184C7.29938 16.2007 8.15608 17.0353 9.18779 17.5954C10.2195 18.1556 11.386 18.4196 12.5584 18.3581C13.7307 18.2967 14.8633 17.9122 15.8308 17.2473C16.7983 16.5824 17.563 15.6628 18.0405 14.5903M5.24831 17.1611L5.82871 14.647C5.92756 14.2188 6.35482 13.9518 6.78302 14.0507L9.29708 14.6311" stroke="#553706" stroke-width="1.5" stroke-linecap="round"/>
</svg>
